<svg xmlns="http://www.w3.org/2000/svg" viewBox="0 0 64 64" width="64" height="64">
    <!-- Toast body - clean, modern shape -->
    <rect x="12" y="20" width="40" height="24" rx="8" fill="#F4A261" stroke="#E76F51" stroke-width="1.5" />

    <!-- Toast top crust - subtle gradient effect -->
    <rect x="12" y="20" width="40" height="6" rx="8" fill="#E9C46A" stroke="#E76F51" stroke-width="1.5" />

    <!-- Toast bottom crust -->
    <rect x="12" y="38" width="40" height="6" rx="8" fill="#E9C46A" stroke="#E76F51" stroke-width="1.5" />

    <!-- Subtle texture - minimal lines -->
    <line x1="18" y1="30" x2="46" y2="30" stroke="#E76F51" stroke-width="0.5" opacity="0.2" />
    <line x1="18" y1="34" x2="46" y2="34" stroke="#E76F51" stroke-width="0.5" opacity="0.2" />

    <!-- Human eyes - larger, more expressive -->
    <ellipse cx="24" cy="28" rx="2.5" ry="3" fill="#2A9D8F" />
    <ellipse cx="40" cy="28" rx="2.5" ry="3" fill="#2A9D8F" />

    <!-- Eye pupils -->
    <circle cx="24" cy="28" r="1.2" fill="#264653" />
    <circle cx="40" cy="28" r="1.2" fill="#264653" />

    <!-- Eye highlights - sophisticated -->
    <circle cx="23" cy="27" r="0.8" fill="white" opacity="0.9" />
    <circle cx="39" cy="27" r="0.8" fill="white" opacity="0.9" />

    <!-- Big, friendly smile - Apple-style curve -->
    <path d="M 18 36 Q 32 44 46 36" stroke="#2A9D8F" stroke-width="2.5" fill="none" stroke-linecap="round" />

    <!-- Subtle cheeks - minimal and elegant -->
    <circle cx="20" cy="34" r="1" fill="#F4A261" opacity="0.4" />
    <circle cx="44" cy="34" r="1" fill="#F4A261" opacity="0.4" />

    <!-- AI indicator - minimal tech element -->
    <circle cx="32" cy="42" r="0.8" fill="#264653" opacity="0.3" />
    <line x1="30" y1="43" x2="34" y2="43" stroke="#264653" stroke-width="0.3" opacity="0.3" />
</svg>
